# xmcd
#
# Track frame offsets: 
#        150
#        15733
#        30572
#        45729
#        66920
#        85447
#        107720
#        124505
#        143177
#        162648
#        182603
#        197827
#        215840
#
# Disc length: 4581 seconds
#
# Revision: 0
# Processed by: cddbd v1.5.2PL0 Copyright (c) Steve Scherf et al.
# Submitted via: ExactAudioCopy v0.99pb4
#
DISCID=be11e30d
DTITLE=Kraig Kenning - Blue and Green
DYEAR=2008
DGENRE=Bluegrass
TTITLE0=Blue and Green
TTITLE1=Take My Hand
TTITLE2=Still There is Reason
TTITLE3=Shine So Bright
TTITLE4=Moment Go By
TTITLE5=Left Behind
TTITLE6=Wondrous Day
TTITLE7=Gone
TTITLE8=La La Salama
TTITLE9=Nothing
TTITLE10=Fall From Grace
TTITLE11=Creator
TTITLE12=The Lower Five Acres (A Short Story)
EXTD=
EXTT0=
EXTT1=
EXTT2=
EXTT3=
EXTT4=
EXTT5=
EXTT6=
EXTT7=
EXTT8=
EXTT9=
EXTT10=
EXTT11=
EXTT12=
PLAYORDER=
